<svg width="797" height="263" viewBox="0 0 797 263" fill="none" xmlns="http://www.w3.org/2000/svg">
<path d="M299.816 16.3073C299.816 18.6503 299.234 20.8258 298.069 22.834C295.642 26.9619 292.002 29.0259 287.149 29.0259H220.611C205.081 169.823 196.879 242.843 196.005 248.088C195.909 248.756 195.811 249.426 195.714 250.095C194.161 257.905 190.23 261.81 183.921 261.81C181.592 261.81 179.553 261.085 177.805 259.635C174.117 256.733 172.274 252.048 172.274 245.577C172.274 244.238 178.145 193.363 189.89 92.9537C193.87 59.1489 196.345 37.8397 197.316 29.0259H135.146C132.914 29.0259 130.778 28.6355 128.74 27.8544C123.595 25.8464 121.023 22.1646 121.023 16.8094C121.023 14.1318 121.605 11.6215 122.77 9.27864C125.1 4.81597 128.74 2.58463 133.69 2.58463H287.44C288.799 2.58463 290.255 2.91932 291.808 3.58872C297.146 5.93164 299.816 10.1712 299.816 16.3073Z" fill="#89BAD3"/>
<path d="M296.541 220.838C296.541 220.95 296.589 221.062 296.686 221.172C299.792 231.548 303.917 236.737 309.062 236.737C312.072 236.513 316.924 234.059 323.622 229.373C329.64 224.798 334.154 222.511 337.162 222.511C338.618 222.511 340.074 223.069 341.531 224.186C344.054 226.417 345.316 228.983 345.316 231.883C344.928 238.02 341.094 244.378 333.814 250.962C325.078 258.213 315.857 261.839 306.15 261.839C299.744 261.839 294.212 259.943 289.553 256.149C278.681 247.224 273.246 229.094 273.246 201.76C273.246 196.405 273.439 190.77 273.828 184.858C274.604 173.478 275.381 166.505 276.157 163.94C269.751 167.732 263.103 169.629 256.21 169.629C255.434 169.629 254.269 169.517 252.716 169.295C251.939 169.183 251.357 169.127 250.969 169.127C250.678 169.349 249.561 170.075 247.621 171.302C241.117 175.653 235.876 177.83 231.896 177.83C230.731 177.83 229.518 177.494 228.256 176.825C225.247 175.04 223.743 172.475 223.743 169.127C223.743 168.569 223.791 168.012 223.889 167.454C224.179 165.222 225.684 162.879 228.402 160.424C229.469 159.532 230.246 158.807 230.731 158.249C224.713 151.89 221.655 143.188 221.559 132.143C221.559 127.346 222.578 122.883 224.616 118.755C228.887 110.164 235.681 105.869 244.999 105.869C249.756 105.869 254.269 107.319 258.54 110.22C265.528 115.24 269.023 122.157 269.023 130.971C269.023 136.215 268.343 140.956 266.985 145.196C268.441 144.414 270.964 142.573 274.556 139.673C281.933 133.872 287.126 130.971 290.135 130.971C294.114 131.082 297.463 132.477 300.181 135.155C301.636 136.605 302.413 138.223 302.51 140.008C302.51 140.678 302.364 141.681 302.073 143.021C301.782 144.024 301.636 144.75 301.636 145.196C296.589 164.832 294.066 181.678 294.066 195.735C294.066 201.872 294.696 208.789 295.958 216.487C296.249 218.495 296.444 219.945 296.541 220.838ZM250.678 133.147C250.678 132.365 250.581 131.529 250.386 130.636C249.514 127.848 247.717 126.453 244.999 126.453C244.418 126.453 243.786 126.564 243.107 126.787C240.389 127.792 239.031 129.911 239.031 133.147C239.127 138.39 241.554 142.407 246.31 145.196C249.125 141.737 250.581 137.72 250.678 133.147Z" fill="#89BAD3"/>
<path d="M350.719 209.443C350.719 205.649 350.914 201.633 351.302 197.394C353.339 178.205 358.581 161.191 367.026 146.352C377.315 128.279 389.691 119.242 404.153 119.242C410.366 119.242 415.801 120.636 420.46 123.425C422.402 120.747 425.071 119.353 428.468 119.242C430.409 119.242 431.622 119.409 432.108 119.744C436.282 121.305 438.369 126.047 438.369 133.968C438.369 137.204 437.883 144.177 436.912 154.887C433.903 186.572 432.399 206.264 432.399 213.962C432.399 219.093 433.32 223.891 435.165 228.353C437.883 235.047 441.475 238.395 445.939 238.395C446.813 238.395 447.735 238.283 448.706 238.06C451.617 237.39 455.792 234.825 461.227 230.362C466.566 225.899 470.836 223.668 474.04 223.668C475.301 223.668 476.612 224.17 477.971 225.173C480.785 227.406 482.193 230.362 482.193 234.044C481.901 239.845 478.067 245.869 470.691 252.117C461.858 259.257 452.491 262.828 442.591 262.828C430.36 262.716 421.333 255.631 415.509 241.575C414.151 243.472 412.598 245.367 410.85 247.264C401.241 257.64 391.486 262.828 381.586 262.828C375.374 262.828 369.987 260.987 365.424 257.305C355.621 249.049 350.719 233.096 350.719 209.443ZM414.781 154.385C414.781 154.385 415.121 150.592 415.801 143.006C413.665 141.777 411.433 141.165 409.104 141.165C407.356 141.165 405.561 141.443 403.717 142.001C394.689 144.901 387.07 154.497 380.858 170.785C375.325 185.401 372.559 200.072 372.559 214.799C372.559 215.356 372.559 215.914 372.559 216.472C372.85 230.084 375.858 236.888 381.586 236.888C384.595 236.776 388.283 234.881 392.651 231.199C397.116 227.517 400.367 224.058 402.406 220.823C403.668 218.703 405.366 212.511 407.502 202.247C411.384 183.17 413.811 167.215 414.781 154.385Z" fill="#89BAD3"/>
<path d="M77.6515 150.44C83.0354 150.44 87.3998 145.424 87.3998 139.235C87.3998 133.047 83.0354 128.031 77.6515 128.031C72.2677 128.031 67.9033 133.047 67.9033 139.235C67.9033 145.424 72.2677 150.44 77.6515 150.44Z" fill="#89BAD3"/>
<path d="M77.6515 53.552C36.4814 53.552 3.10605 91.914 3.10605 139.235C3.10605 186.556 36.4814 224.919 77.6515 224.919C118.821 224.919 152.197 186.556 152.197 139.235C152.197 91.914 118.821 53.552 77.6515 53.552ZM49.2285 74.8622C57.7615 69.876 67.421 67.064 77.6515 67.064C78.2523 67.064 78.8479 67.0733 79.4433 67.0919C80.4322 67.1228 81.1111 69.9473 80.9629 73.3632L80.2031 90.9446C80.0549 94.3605 79.4244 97.0951 78.7939 97.0734C78.414 97.061 78.0341 97.0549 77.6515 97.0549C72.2709 97.0549 67.1595 98.3865 62.5549 100.777C59.8417 102.186 56.5949 101.347 55.0807 98.402L47.2777 83.2363C45.7635 80.291 46.5745 76.4138 49.2285 74.8622ZM46.1784 107.114L34.6518 95.5249C32.4102 93.2735 32.1785 89.3497 34.3313 86.9898C34.3824 86.934 34.431 86.8814 34.4848 86.8257C36.6457 84.4719 40.0326 84.952 41.8593 87.6495L51.2735 101.536C53.103 104.234 53.5287 107.386 52.327 108.703C51.1226 110.025 48.4202 109.365 46.1784 107.114ZM51.2735 139.235C51.2735 122.49 63.0829 108.916 77.6515 108.916C92.2201 108.916 104.029 122.49 104.029 139.235C104.029 155.98 92.2201 169.554 77.6515 169.554C63.0829 169.554 51.2735 155.98 51.2735 139.235ZM105.951 203.68C97.4472 208.622 87.8309 211.407 77.6515 211.407C76.9833 211.407 76.3178 211.394 75.6549 211.372C74.553 211.332 73.7905 208.496 73.9521 205.079L74.7874 187.501C74.9517 184.086 75.6549 181.366 76.3663 181.394C76.792 181.409 77.2204 181.419 77.6515 181.419C82.593 181.419 87.3028 180.298 91.6057 178.266C94.3594 176.966 97.7354 177.82 99.3575 180.688L107.713 195.46C109.334 198.325 108.608 202.134 105.951 203.68ZM120.632 191.85C118.569 194.08 115.23 193.556 113.349 190.905L103.676 177.256C101.796 174.606 101.316 171.533 102.504 170.273C103.696 169.013 106.393 169.718 108.631 171.973L120.163 183.568C122.406 185.82 122.699 189.619 120.632 191.85Z" fill="#89BAD3"/>
<path d="M566.852 132.8C566.261 120.396 555.919 122.65 546.551 122.65C537.848 122.65 534.298 127.688 529.57 133.991C518.824 148.32 520.919 171.386 519.42 188.628C518.584 198.24 518.355 207.72 518.355 217.451C518.355 221.866 516.393 232.97 519.733 236.311C529.223 245.801 544.882 242.2 557.265 242.2C568.801 242.2 581.208 236.013 590.536 229.794" stroke="#89BAD3" stroke-width="20" stroke-linecap="round"/>
<path d="M637.905 113.627C636.528 144.397 643.306 174.736 645.8 205.295C646.617 215.3 650.312 225.557 650.312 235.433" stroke="#89BAD3" stroke-width="20" stroke-linecap="round"/>
<path d="M649.184 192.576C649.589 180.021 655.797 172.343 664.598 163.502C677.452 150.589 692.686 140.381 705.701 127.662C712.227 121.285 715.425 112.499 724.749 112.499" stroke="#89BAD3" stroke-width="20" stroke-linecap="round"/>
<path d="M652.567 172.275C664.515 185.693 677.993 198.185 688.909 212.501C694.373 219.667 698 227.858 704.448 234.306" stroke="#89BAD3" stroke-width="20" stroke-linecap="round"/>
</svg>
